<svg xmlns="http://www.w3.org/2000/svg" xmlns:xlink="http://www.w3.org/1999/xlink" width="500" zoomAndPan="magnify" viewBox="0 0 375 374.999991" height="500" preserveAspectRatio="xMidYMid meet" version="1.0"><defs><g/><clipPath id="3aa10af751"><path d="M 0 4 L 367 4 L 367 371 L 0 371 Z M 0 4 " clip-rule="nonzero"/></clipPath><clipPath id="571901e139"><path d="M 183.5 4 C 82.15625 4 0 86.15625 0 187.5 C 0 288.84375 82.15625 371 183.5 371 C 284.84375 371 367 288.84375 367 187.5 C 367 86.15625 284.84375 4 183.5 4 Z M 183.5 4 " clip-rule="nonzero"/></clipPath></defs><g clip-path="url(#3aa10af751)"><g clip-path="url(#571901e139)"><path fill="#2e2e2e" d="M 0 4 L 367 4 L 367 371 L 0 371 Z M 0 4 " fill-opacity="1" fill-rule="nonzero"/></g></g><g fill="#ededed" fill-opacity="1"><g transform="translate(47.922095, 276.430515)"><g><path d="M 122.015625 -178.921875 L 122.015625 -53.3125 C 122.015625 -35.882812 116.972656 -22.34375 106.890625 -12.6875 C 96.804688 -3.03125 83.304688 1.796875 66.390625 1.796875 C 49.304688 1.796875 35.507812 -3.15625 25 -13.0625 C 14.488281 -22.976562 9.234375 -36.820312 9.234375 -54.59375 L 45.109375 -54.59375 C 45.285156 -46.90625 47.125 -40.925781 50.625 -36.65625 C 54.132812 -32.382812 59.21875 -30.25 65.875 -30.25 C 72.375 -30.25 77.332031 -32.296875 80.75 -36.390625 C 84.164062 -40.492188 85.875 -46.132812 85.875 -53.3125 L 85.875 -178.921875 Z M 122.015625 -178.921875 "/></g></g></g><g fill="#ededed" fill-opacity="1"><g transform="translate(142.763687, 276.430515)"><g/></g></g><g fill="#ededed" fill-opacity="1"><g transform="translate(152.501277, 276.430515)"><g/></g></g><g fill="#ededed" fill-opacity="1"><g transform="translate(162.239297, 276.430515)"><g><path d="M 119.203125 -91.765625 C 129.285156 -89.890625 137.570312 -84.847656 144.0625 -76.640625 C 150.5625 -68.441406 153.8125 -59.046875 153.8125 -48.453125 C 153.8125 -38.878906 151.457031 -30.457031 146.75 -23.1875 C 142.050781 -15.925781 135.257812 -10.242188 126.375 -6.140625 C 117.488281 -2.046875 106.976562 0 94.84375 0 L 17.6875 0 L 17.6875 -178.921875 L 91.515625 -178.921875 C 103.648438 -178.921875 114.117188 -176.957031 122.921875 -173.03125 C 131.722656 -169.101562 138.382812 -163.632812 142.90625 -156.625 C 147.4375 -149.613281 149.703125 -141.664062 149.703125 -132.78125 C 149.703125 -122.363281 146.925781 -113.648438 141.375 -106.640625 C 135.820312 -99.628906 128.429688 -94.671875 119.203125 -91.765625 Z M 53.578125 -105.09375 L 86.390625 -105.09375 C 94.929688 -105.09375 101.507812 -107.015625 106.125 -110.859375 C 110.738281 -114.710938 113.046875 -120.226562 113.046875 -127.40625 C 113.046875 -134.582031 110.738281 -140.132812 106.125 -144.0625 C 101.507812 -148 94.929688 -149.96875 86.390625 -149.96875 L 53.578125 -149.96875 Z M 89.71875 -29.21875 C 98.4375 -29.21875 105.226562 -31.269531 110.09375 -35.375 C 114.96875 -39.476562 117.40625 -45.289062 117.40625 -52.8125 C 117.40625 -60.5 114.84375 -66.519531 109.71875 -70.875 C 104.59375 -75.238281 97.671875 -77.421875 88.953125 -77.421875 L 53.578125 -77.421875 L 53.578125 -29.21875 Z M 89.71875 -29.21875 "/></g></g></g></svg>